<svg width="60" height="60" viewBox="0 0 60 60" fill="none" xmlns="http://www.w3.org/2000/svg">
<path d="M58.2849 14.2554H44.5938V7.31964C44.5938 6.37396 43.8243 5.60449 42.8786 5.60449H17.1214C16.1757 5.60449 15.4062 6.37396 15.4062 7.31964V14.2554H1.71515C0.769468 14.2554 0 15.0249 0 15.9706V52.6807C0 53.6264 0.769468 54.3959 1.71515 54.3959H58.2849C59.2305 54.3959 60 53.6264 60 52.6807V15.9706C60 15.0248 59.2305 14.2554 58.2849 14.2554ZM54.7041 49.777H39.1146C38.832 49.777 38.603 50.0059 38.603 50.2885C38.603 50.5712 38.832 50.8001 39.1146 50.8001H54.7041V53.3728H5.29589V40.8101H21.7826C22.0652 40.8101 22.2941 40.5812 22.2941 40.2986C22.2941 40.016 22.0652 39.787 21.7826 39.787H5.29589V32.1291H11.0974V34.776C11.0974 35.5503 11.7273 36.1802 12.5015 36.1802H15.7148C16.4891 36.1802 17.119 35.5503 17.119 34.776V32.1291H42.8813V34.776C42.8813 35.5503 43.5111 36.1802 44.2854 36.1802H47.4987C48.273 36.1802 48.9028 35.5503 48.9028 34.776V32.1291H54.7041V49.777ZM12.1205 34.776V29.3314C12.1205 29.1212 12.2914 28.9503 12.5015 28.9503H15.7148C15.925 28.9503 16.0959 29.1212 16.0959 29.3314V34.776C16.0959 34.9862 15.925 35.1571 15.7148 35.1571H12.5015C12.2914 35.1571 12.1205 34.9862 12.1205 34.776ZM43.9044 34.776V29.3314C43.9044 29.1212 44.0753 28.9503 44.2854 28.9503H47.4987C47.7088 28.9503 47.8798 29.1212 47.8798 29.3314V34.776C47.8798 34.9862 47.7088 35.1571 47.4987 35.1571H44.2854C44.0753 35.1571 43.9044 34.9862 43.9044 34.776ZM48.903 31.106V29.3314C48.903 28.5571 48.2731 27.9273 47.4988 27.9273H44.2855C43.5113 27.9273 42.8814 28.5571 42.8814 29.3314V31.106H17.119V29.3314C17.119 28.5571 16.4891 27.9273 15.7148 27.9273H12.5015C11.7273 27.9273 11.0974 28.5571 11.0974 29.3314V31.106H1.02307V22.7559H10.9501C11.2327 22.7559 11.4616 22.527 11.4616 22.2444C11.4616 21.9618 11.2327 21.7329 10.9501 21.7329H1.02307V19.3708H58.9769V31.106H48.903ZM16.4293 7.31964C16.4293 6.93797 16.7397 6.62756 17.1214 6.62756H42.8786C43.2603 6.62756 43.5707 6.93797 43.5707 7.31964V14.2554H41.9071V9.69376C41.9071 8.87458 41.2408 8.20826 40.4216 8.20826H19.5784C18.7592 8.20826 18.0929 8.87458 18.0929 9.69376V14.2554H16.4293V7.31964ZM19.116 14.2554V9.69376C19.116 9.43884 19.3235 9.23133 19.5784 9.23133H40.4216C40.6765 9.23133 40.884 9.43884 40.884 9.69376V14.2554H19.116ZM1.71515 15.2785H58.2849C58.6665 15.2785 58.9769 15.5889 58.9769 15.9706V18.3477H1.02307V15.9706C1.02307 15.5889 1.33348 15.2785 1.71515 15.2785ZM1.02307 52.6807V32.1291H4.27282V53.3728H1.71515C1.33348 53.3728 1.02307 53.0623 1.02307 52.6807ZM58.2849 53.3728H55.7272V32.1291H58.9769V52.6807C58.9769 53.0623 58.6665 53.3728 58.2849 53.3728Z" fill="#121212"/>
</svg>
