<svg width="60" height="60" viewBox="0 0 60 60" fill="none" xmlns="http://www.w3.org/2000/svg">
<path d="M58.2849 14.2553H44.5938V7.31952C44.5938 6.37384 43.8243 5.60437 42.8786 5.60437H17.1214C16.1757 5.60437 15.4062 6.37384 15.4062 7.31952V14.2553H1.71515C0.769468 14.2553 0 15.0248 0 15.9705V52.6806C0 53.6263 0.769468 54.3957 1.71515 54.3957H58.2849C59.2305 54.3957 60 53.6263 60 52.6806V15.9705C60 15.0247 59.2305 14.2553 58.2849 14.2553ZM54.7041 49.7769H39.1146C38.832 49.7769 38.603 50.0058 38.603 50.2884C38.603 50.571 38.832 50.8 39.1146 50.8H54.7041V53.3727H5.29589V40.81H21.7826C22.0652 40.81 22.2941 40.5811 22.2941 40.2985C22.2941 40.0158 22.0652 39.7869 21.7826 39.7869H5.29589V32.1289H11.0974V34.7759C11.0974 35.5502 11.7273 36.1801 12.5015 36.1801H15.7148C16.4891 36.1801 17.119 35.5502 17.119 34.7759V32.1289H42.8813V34.7759C42.8813 35.5502 43.5111 36.1801 44.2854 36.1801H47.4987C48.273 36.1801 48.9028 35.5502 48.9028 34.7759V32.1289H54.7041V49.7769ZM12.1205 34.7759V29.3313C12.1205 29.1211 12.2914 28.9502 12.5015 28.9502H15.7148C15.925 28.9502 16.0959 29.1211 16.0959 29.3313V34.7759C16.0959 34.9861 15.925 35.157 15.7148 35.157H12.5015C12.2914 35.157 12.1205 34.9861 12.1205 34.7759ZM43.9044 34.7759V29.3313C43.9044 29.1211 44.0753 28.9502 44.2854 28.9502H47.4987C47.7088 28.9502 47.8798 29.1211 47.8798 29.3313V34.7759C47.8798 34.9861 47.7088 35.157 47.4987 35.157H44.2854C44.0753 35.157 43.9044 34.9861 43.9044 34.7759ZM48.903 31.1059V29.3313C48.903 28.557 48.2731 27.9271 47.4988 27.9271H44.2855C43.5113 27.9271 42.8814 28.557 42.8814 29.3313V31.1059H17.119V29.3313C17.119 28.557 16.4891 27.9271 15.7148 27.9271H12.5015C11.7273 27.9271 11.0974 28.557 11.0974 29.3313V31.1059H1.02307V22.7558H10.9501C11.2327 22.7558 11.4616 22.5269 11.4616 22.2443C11.4616 21.9617 11.2327 21.7328 10.9501 21.7328H1.02307V19.3707H58.9769V31.1059H48.903ZM16.4293 7.31952C16.4293 6.93785 16.7397 6.62744 17.1214 6.62744H42.8786C43.2603 6.62744 43.5707 6.93785 43.5707 7.31952V14.2553H41.9071V9.69364C41.9071 8.87446 41.2408 8.20814 40.4216 8.20814H19.5784C18.7592 8.20814 18.0929 8.87446 18.0929 9.69364V14.2553H16.4293V7.31952ZM19.116 14.2553V9.69364C19.116 9.43871 19.3235 9.23121 19.5784 9.23121H40.4216C40.6765 9.23121 40.884 9.43871 40.884 9.69364V14.2553H19.116ZM1.71515 15.2784H58.2849C58.6665 15.2784 58.9769 15.5888 58.9769 15.9705V18.3476H1.02307V15.9705C1.02307 15.5888 1.33348 15.2784 1.71515 15.2784ZM1.02307 52.6806V32.1289H4.27282V53.3727H1.71515C1.33348 53.3727 1.02307 53.0621 1.02307 52.6806ZM58.2849 53.3727H55.7272V32.1289H58.9769V52.6806C58.9769 53.0621 58.6665 53.3727 58.2849 53.3727Z" fill="#121212"/>
</svg>
