<svg width="170" height="31" viewBox="0 0 170 31" fill="none" xmlns="http://www.w3.org/2000/svg">
<path d="M122.626 11.7324H113.242V15.4119H122.626V11.7324Z" fill="#2A342A"/>
<path d="M14.1904 15.1919V24.4224C14.1904 25.0676 13.6725 25.5898 13.0338 25.5898H11.0742C11.0106 25.5898 10.9585 25.5379 10.9585 25.4731V16.2425C10.9585 15.5978 11.4761 15.0752 12.1151 15.0752H14.0747C14.1386 15.0752 14.1904 15.1278 14.1904 15.1919Z" fill="#2A342A"/>
<path d="M8.74257 1.22462V12.0283C8.74257 12.0925 8.69115 12.145 8.62688 12.145H6.65543C6.01609 12.145 5.49854 11.6221 5.49854 10.9777V0.174011C5.49854 0.1095 5.54995 0.0576172 5.61422 0.0576172H7.58568C8.22501 0.0576172 8.74257 0.57985 8.74257 1.22462Z" fill="#2A342A"/>
<path d="M8.74257 20.6162V28.9204C8.74257 29.5648 8.22501 30.0874 7.58568 30.0874H5.61422C5.55029 30.0874 5.49854 30.0355 5.49854 29.9707V21.6669C5.49854 21.0221 6.01609 20.4995 6.65543 20.4995H8.62688C8.69115 20.4995 8.74257 20.5521 8.74257 20.6162Z" fill="#2A342A"/>
<path d="M3.23457 23.4725V28.9205C3.23457 29.5649 2.71701 30.0875 2.07835 30.0875H0.115693C0.0520976 30.0875 0 30.0359 0 29.9707V24.5228C0 23.878 0.5179 23.3555 1.1569 23.3555H3.11888C3.18315 23.3555 3.23457 23.408 3.23457 23.4725Z" fill="#2A342A"/>
<path d="M14.1904 5.72691V10.4591C14.1904 10.5236 14.1389 10.5761 14.0747 10.5761H12.1151C11.4761 10.5761 10.9585 10.0536 10.9585 9.40881V4.6763C10.9585 4.61213 11.0103 4.55957 11.0742 4.55957H13.0338C13.6721 4.55957 14.1904 5.08214 14.1904 5.72691Z" fill="#2A342A"/>
<path d="M3.23457 1.22511V6.67371C3.23457 6.73822 3.18315 6.79045 3.11888 6.79045H1.1569C0.5179 6.79045 0 6.26787 0 5.62379V0.174499C0 0.109988 0.0517593 0.0581055 0.115693 0.0581055H2.07835C2.71701 0.0581055 3.23457 0.580338 3.23457 1.22511Z" fill="#2A342A"/>
<path d="M29.7619 29.975V22.2166C29.7619 21.4739 29.4696 20.7612 28.9494 20.2359C28.0039 19.2819 27.0584 18.3289 26.113 17.3749C25.5924 16.8499 24.8867 16.5547 24.1506 16.5547H16.4624C16.3988 16.5547 16.3467 16.6069 16.3467 16.6714V24.4295C16.3467 25.1725 16.6389 25.8852 17.1595 26.4105C18.105 27.3642 19.0498 28.3175 19.9953 29.2712C20.5159 29.7965 21.2215 30.0917 21.9576 30.0917H29.6462C29.7101 30.0917 29.7619 30.0392 29.7619 29.975Z" fill="#2A342A"/>
<path d="M29.7619 0.116732V7.8751C29.7619 8.61783 29.4696 9.33052 28.9494 9.85583C28.0039 10.8098 27.0584 11.7628 26.113 12.7168C25.5924 13.2418 24.8867 13.537 24.1506 13.537H16.4624C16.3988 13.537 16.3467 13.4848 16.3467 13.4203V5.66228C16.3467 4.91921 16.6389 4.20652 17.1595 3.68122C18.105 2.72755 19.0498 1.77422 19.9953 0.820548C20.5159 0.295245 21.2215 0 21.9576 0H29.6462C29.7101 0 29.7619 0.0525628 29.7619 0.116732Z" fill="url(#paint0_linear)"/>
<path d="M142.75 0.707375V4.38688H134.906C134.395 4.38688 133.886 4.40804 133.38 4.4903C131.939 4.80808 130.899 6.20411 130.79 7.65475C130.749 8.41557 130.755 9.17878 130.759 9.93789H130.753V11.7322H140.685V15.4118H130.758C130.765 20.0995 130.76 24.7843 130.76 29.4703H126.989C126.994 24.8948 126.989 20.3187 126.994 15.7394V11.1458C127.044 9.487 126.851 7.80152 127.145 6.15837C127.564 3.94316 129.167 2.00305 131.264 1.2139C132.238 0.813867 133.263 0.719321 134.299 0.70874C134.383 0.707033 134.464 0.707031 134.55 0.707031H142.75V0.707375Z" fill="#2A342A"/>
<path d="M94.519 1.05294C94.5136 2.16328 94.5136 3.27498 94.5207 4.38703H92.4786C91.9654 4.38703 91.4529 4.40819 90.9455 4.49045C89.5045 4.80822 88.4653 6.20426 88.3557 7.6549C88.3158 8.41571 88.3225 9.17892 88.3259 9.93803H88.3208V11.7327H94.519V15.4119H88.3256C88.3327 20.0997 88.3276 24.7844 88.3276 29.4705H84.5559C84.5613 24.895 84.5559 20.3188 84.5613 15.7396V11.146C84.6113 9.48714 84.4172 7.80132 84.7105 6.15852C85.1292 3.9433 86.7337 2.0032 88.8299 1.21439C89.8833 0.782953 90.9976 0.70752 92.1186 0.70752H94.5194V0.721514H94.521C94.5207 0.832104 94.519 0.94235 94.519 1.05294Z" fill="#2A342A"/>
<path d="M108.856 29.1236V29.469H106.455C105.334 29.469 104.22 29.3936 103.166 28.9622C101.071 28.173 99.4661 26.2332 99.047 24.0184C98.7534 22.3756 98.9479 20.6894 98.8982 19.0305V14.437C98.8924 9.85772 98.8982 5.28189 98.8924 0.706055H102.664C102.664 4.03673 102.666 7.36706 102.666 10.6974V11.7323H108.856V15.4118H102.666V18.4442H102.657V20.2385H102.662C102.659 20.998 102.652 21.7608 102.692 22.522C102.801 23.9723 103.841 25.3683 105.282 25.6861C105.789 25.7684 106.302 25.7895 106.815 25.7895H108.857C108.85 26.9012 108.85 28.0133 108.856 29.1236Z" fill="#2A342A"/>
<path d="M169.138 29.4716H164.209L163.92 28.9258L162.846 26.8761C162.472 26.1477 162.086 25.4197 161.7 24.6954C160.618 22.6733 159.523 20.6633 158.695 18.5447C158.502 18.0518 158.325 17.5538 158.163 17.0466L157.982 16.4663L157.802 17.0466C157.64 17.5534 157.463 18.0514 157.27 18.5447C156.443 20.6633 155.347 22.6733 154.264 24.6954C153.878 25.4197 153.493 26.1477 153.119 26.8761L152.045 28.9258L151.756 29.4716H146.827L151.487 21.3036C151.897 20.5861 152.308 19.869 152.72 19.1515V19.1498C152.838 18.9413 152.958 18.7303 153.076 18.5167L153.132 18.4187L154.101 16.7226L154.244 16.4718C154.494 15.9861 154.635 15.4355 154.635 14.8515C154.635 14.2446 154.482 13.6725 154.214 13.1728L152.888 10.8402L150.02 5.79608L149.005 4.01947L147.428 1.25028L147.117 0.706543H151.981L152.276 1.25028L153.826 4.07749L154.379 5.08236C155.109 6.43811 155.827 7.80957 156.583 9.16532C156.891 9.7268 157.169 10.3036 157.428 10.8894C157.559 11.1791 157.682 11.472 157.803 11.7662L157.982 12.2065L158.161 11.7662C158.283 11.472 158.407 11.1788 158.537 10.8894C158.796 10.3036 159.074 9.7268 159.381 9.16532C160.137 7.80957 160.855 6.43811 161.585 5.08236L162.138 4.07749L163.689 1.25028L163.984 0.706543H168.848L168.536 1.25028L166.96 4.01947L165.945 5.79608L163.077 10.8402L161.75 13.1728C161.483 13.6725 161.33 14.2446 161.33 14.8515C161.33 15.4355 161.471 15.9861 161.721 16.4718L161.863 16.7226L162.833 18.4187L162.889 18.5167C163.007 18.7307 163.127 18.9413 163.245 19.1498V19.1515C163.657 19.869 164.068 20.5861 164.478 21.3036L169.138 29.4716Z" fill="#2A342A"/>
<path d="M66.7487 5.17894C69.6014 4.68948 72.7084 4.85127 75.2844 6.29372C77.3461 7.44024 78.7121 9.57353 79.2939 11.8369C79.8971 14.0535 79.8548 16.3697 79.8169 18.6457C79.7371 21.4258 79.0578 24.3612 77.1479 26.4627C75.2465 28.5663 72.3543 29.4832 69.5906 29.4661C66.837 29.5408 63.8626 28.8916 61.8624 26.8563C59.8804 24.8824 59.1491 22.0023 58.9972 19.273C58.8917 16.0209 58.8304 12.5574 60.4369 9.61824C61.6828 7.2211 64.1346 5.62984 66.7487 5.17894ZM67.8197 8.16112C66.4389 8.39732 65.1362 9.15507 64.35 10.3419C63.1989 12.0857 62.9418 14.247 62.9222 16.2956C62.9097 18.2948 62.8654 20.3475 63.5067 22.2689C63.9509 23.685 64.8554 25.0189 66.2112 25.678C67.8958 26.4757 69.8774 26.5375 71.6544 26.0354C73.1489 25.6101 74.3717 24.4489 74.9765 23.017C75.9714 20.7069 75.8347 18.1245 75.8114 15.6614C75.7292 13.5066 75.352 11.1327 73.7496 9.56295C72.2044 8.03995 69.852 7.8273 67.8197 8.16112Z" fill="#2A342A"/>
<path d="M54.7461 24.8185C54.1714 26.5169 52.772 27.8235 51.1652 28.5243C49.0067 29.4936 46.5626 29.6353 44.2431 29.3206C42.1593 29.0192 40.0516 28.1253 38.7029 26.4316C38.0645 25.6483 37.6583 24.7099 37.4056 23.7334L37.3058 23.3156L37.1553 22.6791H40.8485C41.2927 24.4522 42.9428 25.6223 44.6598 25.9421C46.5396 26.2923 48.6647 26.177 50.2711 25.0223C51.2393 24.3522 51.7883 23.0555 51.3874 21.9094C50.9839 20.7311 49.8344 20.0556 48.7442 19.6358C46.5501 18.8111 44.305 18.1206 42.1181 17.2728C40.4122 16.5843 38.7702 15.3422 38.2232 13.4943C37.6383 11.4555 37.9959 9.06897 39.4339 7.46848C40.7518 5.98951 42.7107 5.27784 44.624 5.02867C47.1272 4.75015 49.8371 4.99454 51.9801 6.44075C53.2594 7.29133 54.1717 8.62592 54.58 10.108L54.6829 10.5257L54.8439 11.1753H51.1452C50.7156 9.83252 49.5256 8.89387 48.1999 8.55117C46.4277 8.08458 44.3872 8.12588 42.8105 9.15942C41.863 9.77039 41.337 11.0098 41.7071 12.1078C42.0163 13.0871 42.9485 13.6694 43.8449 14.0278C45.7941 14.7497 47.7574 15.4221 49.7092 16.1389C51.2954 16.7239 52.8663 17.5615 53.9265 18.9248C55.2113 20.5638 55.397 22.8804 54.7461 24.8185Z" fill="#2A342A"/>
<defs>
<linearGradient id="paint0_linear" x1="29.7619" y1="-8.0687e-07" x2="16.2254" y2="13.4147" gradientUnits="userSpaceOnUse">
<stop stop-color="#89DD65"/>
<stop offset="1" stop-color="#AEDD65"/>
</linearGradient>
</defs>
</svg>
