<svg width="60" height="60" viewBox="0 0 60 60" fill="none" xmlns="http://www.w3.org/2000/svg">
<g clip-path="url(#clip0)">
<path d="M31.6033 57.3603C31.5985 57.3603 31.5943 57.36 31.5895 57.36H28.4C28.3913 57.3603 28.382 57.3603 28.3728 57.36H0.599762C0.412042 57.36 0.235117 57.2721 0.121766 57.1225C0.008114 56.9729 -0.0284704 56.7788 0.022208 56.598L4.25221 41.5576C4.87894 39.3299 6.65239 37.5591 8.88134 36.9363L19.7757 33.8908L22.2634 30.1466C22.3636 29.9957 22.5264 29.8983 22.7067 29.8812C22.736 29.8785 22.7642 29.8785 22.7927 29.8791L22.7828 29.3705C21.9645 27.9044 21.5462 26.5265 21.3737 25.856L20.8427 25.6143C19.0995 24.8214 18.1954 22.1391 18.3285 20.0034C18.4185 18.5667 19.0653 17.8899 19.6761 17.6197C19.3214 15.8447 18.572 10.5685 21.2424 6.89715C24.3782 2.58588 29.5653 2.63026 30.0002 2.64106C30.435 2.62846 35.6222 2.58528 38.7576 6.89715C41.4277 10.5685 40.6783 15.8447 40.3239 17.6197C40.9347 17.8899 41.5818 18.5667 41.6715 20.0034C41.8046 22.1388 40.9011 24.8214 39.1577 25.6143L38.6632 25.8395C38.5342 26.5826 38.1702 28.2427 37.2949 29.8812C37.4745 29.8989 37.637 29.996 37.7369 30.1466L40.2249 33.8911L51.1187 36.9363C53.3476 37.5591 55.1211 39.3299 55.7478 41.5576L59.9778 56.598C60.0285 56.7788 59.9919 56.9729 59.8783 57.1225C59.7649 57.2721 59.588 57.36 59.4003 57.36H31.6168C31.6123 57.36 31.6078 57.3603 31.6033 57.3603ZM51.1139 56.1605H58.6086L54.5927 41.8821C54.5924 41.8821 54.5924 41.8821 54.5924 41.8821C54.0787 40.055 52.624 38.6021 50.7957 38.0911L40.2318 35.1382L33.9756 52.0987C33.9756 52.0993 33.9753 52.1002 33.975 52.1011L32.466 56.1605H49.9147V46.1151C49.9147 45.784 50.1834 45.5153 50.5144 45.5153C50.8455 45.5153 51.1142 45.784 51.1142 46.1151V56.1605H51.1139ZM28.8049 56.1605H31.1862L32.798 51.8244L31.3865 41.5282C31.3742 41.438 31.3823 41.3465 31.4108 41.2595L32.4717 38.0266L31.6144 36.4553H28.3856L27.5286 38.0269L28.5893 41.2595C28.6177 41.3459 28.6258 41.4377 28.6136 41.5276L27.2116 51.8253L28.8049 56.1605ZM10.0856 56.1605H27.5268L26.0346 52.1002V52.0999L19.7679 35.1382L9.204 38.0911C7.37568 38.6021 5.921 40.055 5.40732 41.8821L1.39143 56.1605H8.88614V46.1151C8.88614 45.784 9.15482 45.5153 9.48588 45.5153C9.81694 45.5153 10.0856 45.784 10.0856 46.1151V56.1605ZM32.5938 41.5024L33.6811 49.432L37.6535 38.6632L35.695 41.509C35.5817 41.674 35.3868 41.7642 35.1928 41.7687C34.9924 41.7657 34.8068 41.6632 34.698 41.4955L33.3024 39.3437L32.5938 41.5024ZM22.3516 38.6701L26.3273 49.4305L27.4066 41.5027L26.6986 39.3443L25.3027 41.4958C25.1938 41.6638 25.0082 41.7663 24.8079 41.769C24.6171 41.7627 24.4189 41.6743 24.3056 41.5093L22.3516 38.6701ZM20.8735 34.406L24.7848 40.0897L26.3225 37.7201C26.3297 37.7025 26.3384 37.6854 26.3474 37.6683L27.2803 35.9581L22.9891 31.577C22.9667 31.5542 22.9463 31.5296 22.9283 31.5038L22.8527 31.427L20.8735 34.406ZM33.6775 37.7186L35.2155 40.0897L39.1271 34.406L37.1476 31.4267L32.7161 35.9515L33.6529 37.6686C33.6619 37.6851 33.67 37.7019 33.6775 37.7186ZM28.2504 35.224H31.7394L33.4088 33.5192C32.4357 34.0251 31.2911 34.3826 30.0002 34.3826C28.5362 34.3826 27.2602 33.8512 26.208 33.1387L28.2504 35.224ZM23.9014 28.912C23.9256 28.9549 26.3606 33.1831 30.0002 33.1831C33.5683 33.1831 35.9373 29.8029 36.0978 29.5675C37.1659 27.702 37.4751 25.7252 37.5267 25.3468C37.5542 25.1426 37.6844 24.9672 37.8718 24.8817L38.6611 24.5225C39.7439 24.0298 40.5917 21.9531 40.4744 20.0783C40.3883 18.698 39.6959 18.6674 39.6414 18.6674C39.3616 18.6815 39.11 18.5061 39.032 18.2308L37.2442 11.8747C36.1757 12.1938 33.7648 12.7546 30.0002 12.7546C26.235 12.7546 23.824 12.1941 22.7558 11.8747L20.9683 18.2308C20.9254 18.3826 20.8277 18.5043 20.7029 18.5805H20.7026C20.7023 18.5808 20.702 18.5814 20.7005 18.5817C20.7002 18.582 20.6999 18.5823 20.6996 18.5823C20.6987 18.5829 20.6975 18.5835 20.6966 18.5844C20.6963 18.5844 20.6963 18.5844 20.6963 18.5844C20.6915 18.5871 20.687 18.5901 20.6822 18.5925C20.6816 18.5931 20.6807 18.5934 20.6804 18.5934C20.6795 18.594 20.6786 18.5943 20.678 18.5949C20.6774 18.5952 20.6771 18.5958 20.6759 18.5961C20.5809 18.6477 20.4708 18.674 20.3602 18.6674C20.2426 18.6701 19.6087 18.7505 19.5256 20.0783C19.4084 21.9531 20.2561 24.0301 21.3392 24.5225L22.136 24.885C22.3066 24.963 22.4314 25.1162 22.4725 25.2994C22.5414 25.6068 22.9355 27.227 23.8996 28.9084C23.9002 28.9096 23.9008 28.9108 23.9014 28.912ZM29.9147 3.83965C29.3287 3.83965 24.8594 3.96349 22.2122 7.60305C20.5401 9.90217 20.3952 13.0253 20.5659 15.2312L21.7717 10.9427C21.8181 10.7781 21.9327 10.6411 22.0865 10.5661C22.2398 10.4908 22.4182 10.4854 22.5771 10.5502C22.6005 10.5598 25.1122 11.5551 30.0002 11.5551C34.8878 11.5551 37.3995 10.5601 37.4241 10.5499C37.5821 10.4854 37.7612 10.4917 37.9141 10.567C38.0673 10.642 38.1822 10.7787 38.2284 10.9427L39.4326 15.2249C39.6015 13.0181 39.4557 9.89587 37.7882 7.60305C34.9553 3.7074 30.0694 3.83755 30.0226 3.84055C30.008 3.84115 29.9933 3.84115 29.9789 3.84055C29.9753 3.84025 29.9534 3.83965 29.9147 3.83965ZM46.4221 54.9259H38.4005C38.0694 54.9259 37.8007 54.6572 37.8007 54.3262V49.8635C37.8007 49.5324 38.0694 49.2637 38.4005 49.2637H39.8729C40.0339 48.4367 40.6999 47.2375 42.4113 47.2375C44.1227 47.2375 44.7887 48.4367 44.9497 49.2637H46.4221C46.7531 49.2637 47.0218 49.5324 47.0218 49.8635V54.3262C47.0218 54.6575 46.7531 54.9259 46.4221 54.9259ZM39.0002 53.7264H45.8223V50.4632H39.0002V53.7264ZM41.114 49.2637H43.7085C43.5787 48.9057 43.2488 48.437 42.4113 48.437C41.5737 48.437 41.2436 48.9057 41.114 49.2637Z" fill="#121212"/>
</g>
<defs>
<clipPath id="clip0">
<rect width="60" height="60" fill="white"/>
</clipPath>
</defs>
</svg>
