<svg width="60" height="56" viewBox="0 0 60 56" fill="none" xmlns="http://www.w3.org/2000/svg">
<path d="M31.6034 55.3605C31.5986 55.3605 31.5944 55.3602 31.5896 55.3602H28.4002C28.3915 55.3605 28.3822 55.3605 28.3729 55.3602H0.599884C0.412164 55.3602 0.23524 55.2724 0.121888 55.1227C0.00823607 54.9731 -0.0283484 54.7791 0.0223301 54.5983L4.25233 39.5579C4.87907 37.3301 6.65251 35.5594 8.88146 34.9365L19.7758 31.891L22.2636 28.1468C22.3637 27.996 22.5266 27.8985 22.7068 27.8814C22.7362 27.8787 22.7644 27.8787 22.7928 27.8793L22.783 27.3707C21.9646 25.9047 21.5463 24.5267 21.3739 23.8562L20.8428 23.6145C19.0996 22.8217 18.1955 20.1393 18.3286 18.0036C18.4186 16.5669 19.0654 15.8901 19.6763 15.6199C19.3215 13.845 18.5721 8.56873 21.2425 4.89739C24.3783 0.586123 29.5655 0.630504 30.0003 0.641299C30.4351 0.628705 35.6223 0.585523 38.7578 4.89739C41.4278 8.56873 40.6784 13.845 40.324 15.6199C40.9348 15.8901 41.582 16.5669 41.6716 18.0036C41.8048 20.139 40.9012 22.8217 39.1578 23.6145L38.6633 23.8397C38.5344 24.5828 38.1703 26.2429 37.295 27.8814C37.4746 27.8991 37.6371 27.9963 37.737 28.1468L40.225 31.8913L51.1188 34.9365C53.3478 35.5594 55.1212 37.3301 55.7479 39.5579L59.9779 54.5983C60.0286 54.7791 59.992 54.9731 59.8784 55.1227C59.765 55.2724 59.5881 55.3602 59.4004 55.3602H31.6169C31.6124 55.3602 31.6079 55.3605 31.6034 55.3605ZM51.114 54.1608H58.6087L54.5928 39.8823C54.5925 39.8823 54.5925 39.8823 54.5925 39.8823C54.0788 38.0552 52.6242 36.6023 50.7958 36.0913L40.2319 33.1385L33.9757 50.099C33.9757 50.0996 33.9754 50.1005 33.9751 50.1014L32.4661 54.1608H49.9148V44.1153C49.9148 43.7843 50.1835 43.5156 50.5146 43.5156C50.8456 43.5156 51.1143 43.7843 51.1143 44.1153V54.1608H51.114ZM28.805 54.1608H31.1863L32.7981 49.8246L31.3866 39.5285C31.3743 39.4382 31.3824 39.3468 31.4109 39.2598L32.4718 36.0269L31.6145 34.4555H28.3858L27.5287 36.0272L28.5894 39.2598C28.6179 39.3461 28.626 39.4379 28.6137 39.5279L27.2118 49.8255L28.805 54.1608ZM10.0858 54.1608H27.5269L26.0348 50.1005V50.1002L19.768 33.1385L9.20413 36.0913C7.3758 36.6023 5.92112 38.0552 5.40744 39.8823L1.39155 54.1608H8.88626V44.1153C8.88626 43.7843 9.15495 43.5156 9.48601 43.5156C9.81707 43.5156 10.0858 43.7843 10.0858 44.1153V54.1608ZM32.5939 39.5027L33.6812 47.4322L37.6536 36.6635L35.6952 39.5093C35.5818 39.6742 35.3869 39.7645 35.1929 39.769C34.9926 39.766 34.8069 39.6634 34.6981 39.4958L33.3025 37.3439L32.5939 39.5027ZM22.3517 36.6704L26.3274 47.4307L27.4067 39.503L26.6987 37.3445L25.3028 39.4961C25.1939 39.664 25.0083 39.7666 24.808 39.7693C24.6173 39.763 24.4191 39.6745 24.3057 39.5096L22.3517 36.6704ZM20.8737 32.4062L24.7849 38.09L26.3226 35.7204C26.3298 35.7027 26.3385 35.6856 26.3475 35.6685L27.2804 33.9583L22.9893 29.5772C22.9668 29.5544 22.9464 29.5298 22.9284 29.504L22.8528 29.4273L20.8737 32.4062ZM33.6776 35.7189L35.2157 38.09L39.1272 32.4062L37.1477 29.427L32.7162 33.9517L33.653 35.6688C33.662 35.6853 33.6701 35.7021 33.6776 35.7189ZM28.2505 33.2243H31.7395L33.4089 31.5195C32.4358 32.0254 31.2912 32.3828 30.0003 32.3828C28.5363 32.3828 27.2603 31.8514 26.2081 31.1389L28.2505 33.2243ZM23.9015 26.9122C23.9258 26.9551 26.3607 31.1833 30.0003 31.1833C33.5685 31.1833 35.9375 27.8032 36.0979 27.5678C37.166 25.7022 37.4752 23.7255 37.5268 23.347C37.5544 23.1428 37.6845 22.9674 37.8719 22.8819L38.6612 22.5227C39.744 22.03 40.5918 19.9534 40.4745 18.0786C40.3885 16.6983 39.6961 16.6677 39.6415 16.6677C39.3617 16.6818 39.1101 16.5064 39.0321 16.2311L37.2443 9.87497C36.1759 10.194 33.7649 10.7548 30.0003 10.7548C26.2351 10.7548 23.8241 10.1943 22.756 9.87497L20.9684 16.2311C20.9255 16.3828 20.8278 16.5046 20.703 16.5807H20.7027C20.7024 16.581 20.7021 16.5816 20.7006 16.5819C20.7003 16.5822 20.7 16.5825 20.6997 16.5825C20.6988 16.5831 20.6976 16.5837 20.6967 16.5846C20.6964 16.5846 20.6964 16.5846 20.6964 16.5846C20.6916 16.5873 20.6871 16.5903 20.6823 16.5927C20.6817 16.5933 20.6808 16.5936 20.6805 16.5936C20.6796 16.5942 20.6787 16.5945 20.6781 16.5951C20.6775 16.5954 20.6772 16.596 20.676 16.5963C20.581 16.6479 20.4709 16.6743 20.3603 16.6677C20.2427 16.6704 19.6088 16.7508 19.5257 18.0786C19.4085 19.9534 20.2562 22.0303 21.3394 22.5227L22.1361 22.8852C22.3068 22.9632 22.4315 23.1164 22.4726 23.2997C22.5416 23.607 22.9356 25.2272 23.8997 26.9086C23.9003 26.9098 23.9009 26.911 23.9015 26.9122ZM29.9148 1.83989C29.3289 1.83989 24.8596 1.96374 22.2123 5.60329C20.5402 7.90241 20.3954 11.0256 20.566 13.2314L21.7718 8.94297C21.8183 8.77834 21.9328 8.6413 22.0866 8.56633C22.2399 8.49106 22.4183 8.48567 22.5772 8.55044C22.6006 8.56003 25.1124 9.55531 30.0003 9.55531C34.8879 9.55531 37.3996 8.56033 37.4242 8.55014C37.5823 8.48567 37.7613 8.49196 37.9142 8.56723C38.0675 8.6422 38.1823 8.77894 38.2285 8.94297L39.4328 13.2252C39.6016 11.0184 39.4559 7.89612 37.7883 5.60329C34.9554 1.70765 30.0696 1.83779 30.0228 1.84079C30.0081 1.84139 29.9934 1.84139 29.979 1.84079C29.9754 1.84049 29.9535 1.83989 29.9148 1.83989ZM46.4222 52.9262H38.4006C38.0695 52.9262 37.8009 52.6575 37.8009 52.3264V47.8637C37.8009 47.5327 38.0695 47.264 38.4006 47.264H39.873C40.034 46.4369 40.7 45.2377 42.4114 45.2377C44.1228 45.2377 44.7888 46.4369 44.9498 47.264H46.4222C46.7533 47.264 47.0219 47.5327 47.0219 47.8637V52.3264C47.0219 52.6578 46.7533 52.9262 46.4222 52.9262ZM39.0004 51.7267H45.8225V48.4635H39.0004V51.7267ZM41.1142 47.264H43.7087C43.5788 46.9059 43.2489 46.4372 42.4114 46.4372C41.5739 46.4372 41.2437 46.9059 41.1142 47.264Z" fill="#121212"/>
</svg>
