<svg width="60" height="60" viewBox="0 0 60 60" fill="none" xmlns="http://www.w3.org/2000/svg">
<g clip-path="url(#clip0)">
<path d="M38.3548 19.5291C38.1645 19.3387 37.8716 19.2948 37.6812 19.4851L28.5722 27.4227C28.1914 27.1738 27.7521 27.0273 27.2687 27.0273C25.9799 27.0273 24.9109 28.0818 24.9109 29.3851C24.9109 30.6739 25.9652 31.7429 27.2687 31.7429C28.5575 31.7429 29.6265 30.6884 29.6265 29.3851C29.6265 28.9165 29.4801 28.477 29.2458 28.111L38.3109 20.2173C38.5014 19.9977 38.5454 19.7194 38.3548 19.5291ZM27.2687 30.7616C26.5072 30.7616 25.8774 30.132 25.8774 29.3703C25.8774 28.6088 26.5071 27.979 27.2687 27.979C27.9862 27.979 28.66 28.6087 28.66 29.3703C28.66 30.132 28.0303 30.7616 27.2687 30.7616Z" fill="#121212"/>
<path d="M23.6222 28.7556L15.597 27.5986C15.5237 26.3685 14.4987 25.3726 13.2538 25.3726C11.965 25.3726 10.896 26.4271 10.896 27.7304C10.896 29.0192 11.9505 30.0882 13.2538 30.0882C14.279 30.0882 15.143 29.4292 15.4652 28.5213L23.5199 29.6635C23.7542 29.6635 23.9445 29.5171 24.0031 29.2828C24.0469 29.0485 23.8565 28.7995 23.6222 28.7556ZM13.2536 29.1654C12.4922 29.1654 11.8623 28.5358 11.8623 27.7741C11.8623 27.0127 12.492 26.3828 13.2536 26.3828C14.0151 26.3828 14.645 27.0125 14.645 27.7741C14.645 28.5504 14.0153 29.1654 13.2536 29.1654Z" fill="#121212"/>
<path d="M55.7385 4.69385H4.2763C1.91849 4.69385 0 6.61234 0 8.96998V44.0152C0 46.373 1.91849 48.2915 4.2763 48.2915H21.074V52.4653H17.8083C17.5154 52.4653 17.325 52.6557 17.325 52.9486V54.8231C17.325 55.116 17.5154 55.3064 17.8083 55.3064H42.1921C42.4264 55.3064 42.6753 55.116 42.6753 54.8231V52.9486C42.6753 52.6557 42.4849 52.4653 42.1921 52.4653H38.9264V48.2915H55.724C58.0818 48.2915 60.0003 46.373 60.0003 44.0152V8.96998C60.0002 6.61217 58.0817 4.69385 55.7385 4.69385ZM41.7233 53.4173V54.3254H18.2915V53.4173H21.5572H34.225C34.5179 53.4173 34.7083 53.227 34.7083 52.9341C34.7083 52.6412 34.5179 52.4509 34.225 52.4509H22.0258V48.2771H37.9595V52.9341C37.9742 53.2123 38.1645 53.4173 38.4576 53.4173H41.7233ZM59.0482 44.0006C59.0482 45.8312 57.5543 47.3104 55.7383 47.3104H4.2763C2.44567 47.3104 0.966654 45.8166 0.966654 44.0006V42.6532H59.0482V44.0006ZM59.0482 41.6869H0.966654V8.95533C0.966654 7.13934 2.44584 5.64569 4.2763 5.64569H55.7385C57.5691 5.64569 59.0483 7.13952 59.0483 8.9555V41.6869H59.0482Z" fill="#121212"/>
<path d="M56.6905 7.46179H54.3327C54.0398 7.46179 53.8494 7.65216 53.8494 7.94503C53.8494 8.23791 54.0398 8.42828 54.3327 8.42828H55.7093L43.0415 15.8092C42.6169 15.2819 41.9579 14.9597 41.2255 14.9597C39.9367 14.9597 38.8677 16.0142 38.8677 17.3175C38.8677 18.6063 39.9222 19.6753 41.2255 19.6753C42.5143 19.6753 43.5833 18.6208 43.5833 17.3175C43.5833 17.0979 43.5541 16.8928 43.4955 16.7025L56.2072 9.29225V38.8751H4.0714L11.1741 30.8643C11.3205 30.6739 11.3205 30.3811 11.1302 30.1907C10.9398 30.0003 10.6469 30.0442 10.4566 30.2346L3.7346 37.8207V8.44309H48.709C49.0018 8.44309 49.1922 8.25272 49.1922 7.95985C49.1922 7.66697 49.0018 7.47661 48.709 7.47661H3.25119C2.95831 7.47661 2.76794 7.66697 2.76794 7.95985V39.3583C2.78259 39.6365 2.97296 39.8271 3.26583 39.8271H56.6905C56.9833 39.8271 57.1737 39.6367 57.1737 39.3438V7.94503C57.1737 7.65216 56.9833 7.46179 56.6905 7.46179ZM41.2402 18.709C40.4787 18.709 39.8489 18.0793 39.8489 17.3177C39.8489 16.5562 40.4785 15.9264 41.2402 15.9264C42.0018 15.9264 42.6315 16.556 42.6315 17.3177C42.6315 18.0793 42.0016 18.709 41.2402 18.709Z" fill="#121212"/>
<path d="M30.0073 43.5175C29.1872 43.5175 28.572 44.1471 28.572 44.9527C28.572 45.7583 29.2456 46.388 30.0073 46.388C30.7689 46.388 31.4425 45.7583 31.4425 44.9527C31.4425 44.1471 30.7689 43.5175 30.0073 43.5175ZM30.0073 45.4945C29.7144 45.4945 29.524 45.3042 29.524 45.0113C29.524 44.7184 29.7583 44.528 30.0073 44.528C30.2416 44.528 30.4905 44.7184 30.4905 45.0113C30.476 45.3042 30.2855 45.4945 30.0073 45.4945Z" fill="#121212"/>
</g>
<defs>
<clipPath id="clip0">
<rect width="60" height="60" fill="white"/>
</clipPath>
</defs>
</svg>
