<svg width="60" height="60" viewBox="0 0 60 60" fill="none" xmlns="http://www.w3.org/2000/svg">
<g clip-path="url(#clip0)">
<path d="M38.3551 19.5289C38.1647 19.3386 37.8718 19.2946 37.6815 19.485L28.5724 27.4226C28.1917 27.1736 27.7524 27.0272 27.2689 27.0272C25.9801 27.0272 24.9111 28.0817 24.9111 29.385C24.9111 30.6738 25.9655 31.7428 27.2689 31.7428C28.5578 31.7428 29.6267 30.6883 29.6267 29.385C29.6267 28.9164 29.4803 28.4769 29.246 28.1108L38.3111 20.2172C38.5017 19.9975 38.5456 19.7193 38.3551 19.5289ZM27.2689 30.7615C26.5075 30.7615 25.8776 30.1318 25.8776 29.3702C25.8776 28.6087 26.5073 27.9789 27.2689 27.9789C27.9865 27.9789 28.6603 28.6085 28.6603 29.3702C28.6603 30.1318 28.0306 30.7615 27.2689 30.7615Z" fill="#121212"/>
<path d="M23.6222 28.7556L15.597 27.5986C15.5237 26.3685 14.4987 25.3726 13.2538 25.3726C11.965 25.3726 10.896 26.4271 10.896 27.7304C10.896 29.0192 11.9505 30.0882 13.2538 30.0882C14.279 30.0882 15.143 29.4292 15.4652 28.5213L23.5199 29.6635C23.7542 29.6635 23.9445 29.5171 24.0031 29.2828C24.0469 29.0485 23.8565 28.7995 23.6222 28.7556ZM13.2536 29.1654C12.4922 29.1654 11.8623 28.5358 11.8623 27.7741C11.8623 27.0127 12.492 26.3828 13.2536 26.3828C14.0151 26.3828 14.645 27.0125 14.645 27.7741C14.645 28.5504 14.0153 29.1654 13.2536 29.1654Z" fill="#121212"/>
<path d="M55.7385 4.69385H4.2763C1.91849 4.69385 0 6.61234 0 8.96998V44.0152C0 46.373 1.91849 48.2915 4.2763 48.2915H21.074V52.4653H17.8083C17.5154 52.4653 17.325 52.6557 17.325 52.9486V54.8231C17.325 55.116 17.5154 55.3064 17.8083 55.3064H42.1921C42.4264 55.3064 42.6753 55.116 42.6753 54.8231V52.9486C42.6753 52.6557 42.4849 52.4653 42.1921 52.4653H38.9264V48.2915H55.724C58.0818 48.2915 60.0003 46.373 60.0003 44.0152V8.96998C60.0002 6.61217 58.0817 4.69385 55.7385 4.69385ZM41.7233 53.4173V54.3254H18.2915V53.4173H21.5572H34.225C34.5179 53.4173 34.7083 53.227 34.7083 52.9341C34.7083 52.6412 34.5179 52.4509 34.225 52.4509H22.0258V48.2771H37.9595V52.9341C37.9742 53.2123 38.1645 53.4173 38.4576 53.4173H41.7233ZM59.0482 44.0006C59.0482 45.8312 57.5543 47.3104 55.7383 47.3104H4.2763C2.44567 47.3104 0.966654 45.8166 0.966654 44.0006V42.6532H59.0482V44.0006ZM59.0482 41.6869H0.966654V8.95533C0.966654 7.13934 2.44584 5.64569 4.2763 5.64569H55.7385C57.5691 5.64569 59.0483 7.13952 59.0483 8.9555V41.6869H59.0482Z" fill="#121212"/>
<path d="M56.6906 7.46191H54.3328C54.0399 7.46191 53.8495 7.65228 53.8495 7.94516C53.8495 8.23803 54.0399 8.4284 54.3328 8.4284H55.7095L43.0416 15.8093C42.617 15.282 41.958 14.9598 41.2257 14.9598C39.9368 14.9598 38.8678 16.0143 38.8678 17.3176C38.8678 18.6064 39.9224 19.6754 41.2257 19.6754C42.5145 19.6754 43.5835 18.6209 43.5835 17.3176C43.5835 17.098 43.5542 16.893 43.4956 16.7026L56.2074 9.29238V38.8752H4.07153L11.1742 30.8644C11.3207 30.674 11.3207 30.3812 11.1303 30.1908C10.9399 30.0004 10.6471 30.0444 10.4567 30.2347L3.73472 37.8209V8.44321H48.7091C49.002 8.44321 49.1923 8.25284 49.1923 7.95997C49.1923 7.6671 49.002 7.47673 48.7091 7.47673H3.25131C2.95843 7.47673 2.76807 7.6671 2.76807 7.95997V39.3584C2.78271 39.6367 2.97308 39.8272 3.26595 39.8272H56.6906C56.9835 39.8272 57.1738 39.6368 57.1738 39.344V7.94516C57.1738 7.65228 56.9835 7.46191 56.6906 7.46191ZM41.2403 18.7091C40.4788 18.7091 39.849 18.0794 39.849 17.3178C39.849 16.5563 40.4787 15.9265 41.2403 15.9265C42.0019 15.9265 42.6316 16.5562 42.6316 17.3178C42.6316 18.0794 42.0018 18.7091 41.2403 18.7091Z" fill="#121212"/>
<path d="M30.007 43.5176C29.187 43.5176 28.5718 44.1473 28.5718 44.9528C28.5718 45.7584 29.2454 46.3881 30.007 46.3881C30.7687 46.3881 31.4423 45.7584 31.4423 44.9528C31.4423 44.1473 30.7687 43.5176 30.007 43.5176ZM30.007 45.4946C29.7142 45.4946 29.5238 45.3043 29.5238 45.0114C29.5238 44.7185 29.7581 44.5282 30.007 44.5282C30.2413 44.5282 30.4903 44.7185 30.4903 45.0114C30.4758 45.3043 30.2853 45.4946 30.007 45.4946Z" fill="#121212"/>
</g>
<defs>
<clipPath id="clip0">
<rect width="60" height="60" fill="white"/>
</clipPath>
</defs>
</svg>
