<svg width="24" height="24" viewBox="0 0 24 24" fill="none" xmlns="http://www.w3.org/2000/svg">
<path d="M12.0003 7.00586C9.24218 7.00586 7.00635 9.24169 7.00635 11.9998C7.00635 14.7579 9.24218 16.9937 12.0003 16.9937C14.7584 16.9937 16.9942 14.7579 16.9942 11.9998C16.9911 9.24303 14.757 7.009 12.0003 7.00586ZM12.0003 16.2277C9.66526 16.2277 7.77232 14.3348 7.77232 11.9998C7.77232 9.66477 9.66526 7.77183 12.0003 7.77183C14.3353 7.77183 16.2282 9.66477 16.2282 11.9998C16.2255 14.3338 14.3342 16.225 12.0003 16.2277Z" fill="black"/>
<path d="M12.3832 5.33621V3.38299C12.3832 3.17145 12.2117 3 12.0002 3C11.7886 3 11.6172 3.17145 11.6172 3.38299V5.33621C11.6172 5.54775 11.7886 5.7192 12.0002 5.7192C12.2117 5.7192 12.3832 5.54775 12.3832 5.33621Z" fill="black"/>
<path d="M12.0002 18.2808C11.7886 18.2808 11.6172 18.4522 11.6172 18.6637V20.617C11.6172 20.8285 11.7886 21 12.0002 21C12.2117 21 12.3832 20.8285 12.3832 20.617V18.6637C12.3832 18.4522 12.2117 18.2808 12.0002 18.2808Z" fill="black"/>
<path d="M20.6175 11.6172H18.6642C18.4527 11.6172 18.2812 11.7886 18.2812 12.0002C18.2812 12.2117 18.4527 12.3832 18.6642 12.3832H20.6175C20.829 12.3832 21.0004 12.2117 21.0004 12.0002C21.0004 11.7886 20.829 11.6172 20.6175 11.6172Z" fill="black"/>
<path d="M5.7192 12.0002C5.7192 11.7886 5.54775 11.6172 5.33621 11.6172H3.38299C3.17145 11.6172 3 11.7886 3 12.0002C3 12.2117 3.17145 12.3832 3.38299 12.3832H5.33621C5.54775 12.3832 5.7192 12.2117 5.7192 12.0002Z" fill="black"/>
<path d="M16.989 7.55315L18.3475 6.1946C18.4961 6.04485 18.4955 5.80324 18.3463 5.65423C18.1973 5.50508 17.9557 5.50448 17.806 5.65304L16.4474 7.01158C16.35 7.10808 16.3116 7.24945 16.3469 7.38215C16.3823 7.5147 16.4859 7.61823 16.6184 7.65368C16.7511 7.68899 16.8925 7.65054 16.989 7.55315Z" fill="black"/>
<path d="M7.01154 16.4469L5.65299 17.8055C5.55545 17.9021 5.51715 18.0435 5.55246 18.176C5.58776 18.3086 5.69144 18.4123 5.82399 18.4476C5.95654 18.4829 6.09791 18.4446 6.19456 18.347L7.55311 16.9885C7.6505 16.892 7.68895 16.7506 7.65364 16.6179C7.61818 16.4854 7.51466 16.3818 7.38211 16.3464C7.24941 16.3111 7.10804 16.3495 7.01154 16.4469Z" fill="black"/>
<path d="M16.989 16.4469C16.8925 16.3495 16.7511 16.3111 16.6184 16.3464C16.4859 16.3818 16.3823 16.4854 16.3469 16.6179C16.3116 16.7506 16.35 16.892 16.4474 16.9885L17.806 18.347C17.9557 18.4956 18.1973 18.495 18.3463 18.3458C18.4955 18.1968 18.4961 17.9552 18.3475 17.8055L16.989 16.4469Z" fill="black"/>
<path d="M7.01159 7.55315C7.10808 7.65054 7.24946 7.68899 7.38216 7.65368C7.51471 7.61823 7.61823 7.5147 7.65369 7.38215C7.689 7.24945 7.65055 7.10808 7.55316 7.01158L6.1946 5.65304C6.04485 5.50448 5.80324 5.50508 5.65423 5.65423C5.50508 5.80324 5.50448 6.04485 5.65304 6.1946L7.01159 7.55315Z" fill="black"/>
</svg>
