<svg width="170" height="31" viewBox="0 0 170 31" fill="none" xmlns="http://www.w3.org/2000/svg">
<path d="M122.626 11.7324H113.242V15.4119H122.626V11.7324Z" fill="url(#paint0_linear)"/>
<path d="M14.1901 15.1919V24.4224C14.1901 25.0676 13.6722 25.5898 13.0336 25.5898H11.0739C11.0103 25.5898 10.9583 25.5379 10.9583 25.4731V16.2425C10.9583 15.5978 11.4758 15.0752 12.1148 15.0752H14.0744C14.1384 15.0752 14.1901 15.1278 14.1901 15.1919Z" fill="url(#paint1_linear)"/>
<path d="M8.74281 1.22462V12.0283C8.74281 12.0925 8.6914 12.145 8.62713 12.145H6.65567C6.01634 12.145 5.49878 11.6221 5.49878 10.9777V0.174011C5.49878 0.1095 5.5502 0.0576172 5.61447 0.0576172H7.58592C8.22526 0.0576172 8.74281 0.57985 8.74281 1.22462Z" fill="url(#paint2_linear)"/>
<path d="M8.74281 20.6162V28.9204C8.74281 29.5648 8.22526 30.0874 7.58592 30.0874H5.61447C5.55053 30.0874 5.49878 30.0355 5.49878 29.9707V21.6669C5.49878 21.0221 6.01634 20.4995 6.65567 20.4995H8.62713C8.6914 20.4995 8.74281 20.5521 8.74281 20.6162Z" fill="url(#paint3_linear)"/>
<path d="M3.23457 23.4725V28.9205C3.23457 29.5649 2.71701 30.0875 2.07835 30.0875H0.115693C0.0520976 30.0875 0 30.0359 0 29.9707V24.5228C0 23.878 0.5179 23.3555 1.1569 23.3555H3.11888C3.18315 23.3555 3.23457 23.408 3.23457 23.4725Z" fill="url(#paint4_linear)"/>
<path d="M14.1901 5.72691V10.4591C14.1901 10.5236 14.1387 10.5761 14.0744 10.5761H12.1148C11.4758 10.5761 10.9583 10.0536 10.9583 9.40881V4.6763C10.9583 4.61213 11.01 4.55957 11.0739 4.55957H13.0336C13.6719 4.55957 14.1901 5.08214 14.1901 5.72691Z" fill="url(#paint5_linear)"/>
<path d="M3.23457 1.22511V6.67371C3.23457 6.73822 3.18315 6.79045 3.11888 6.79045H1.1569C0.5179 6.79045 0 6.26787 0 5.62379V0.174499C0 0.109988 0.0517593 0.0581055 0.115693 0.0581055H2.07835C2.71701 0.0581055 3.23457 0.580338 3.23457 1.22511Z" fill="url(#paint6_linear)"/>
<path d="M29.7621 29.975V22.2166C29.7621 21.4739 29.4699 20.7612 28.9496 20.2359C28.0041 19.2819 27.0587 18.3289 26.1132 17.3749C25.5926 16.8499 24.887 16.5547 24.1509 16.5547H16.4626C16.399 16.5547 16.3469 16.6069 16.3469 16.6714V24.4295C16.3469 25.1725 16.6392 25.8852 17.1598 26.4105C18.1053 27.3642 19.0501 28.3175 19.9955 29.2712C20.5161 29.7965 21.2218 30.0917 21.9579 30.0917H29.6465C29.7104 30.0917 29.7621 30.0392 29.7621 29.975Z" fill="url(#paint7_linear)"/>
<path d="M29.7621 0.116732V7.8751C29.7621 8.61783 29.4699 9.33052 28.9496 9.85583C28.0041 10.8098 27.0587 11.7628 26.1132 12.7168C25.5926 13.2418 24.887 13.537 24.1509 13.537H16.4626C16.399 13.537 16.3469 13.4848 16.3469 13.4203V5.66228C16.3469 4.91921 16.6392 4.20652 17.1598 3.68122C18.1053 2.72755 19.0501 1.77422 19.9955 0.820548C20.5161 0.295245 21.2218 0 21.9579 0H29.6465C29.7104 0 29.7621 0.0525628 29.7621 0.116732Z" fill="url(#paint8_linear)"/>
<path d="M142.75 0.707375V4.38688H134.906C134.395 4.38688 133.886 4.40804 133.38 4.4903C131.939 4.80808 130.899 6.20411 130.79 7.65475C130.749 8.41557 130.755 9.17878 130.759 9.93789H130.753V11.7322H140.685V15.4118H130.758C130.765 20.0995 130.76 24.7843 130.76 29.4703H126.989C126.994 24.8948 126.989 20.3187 126.994 15.7394V11.1458C127.044 9.487 126.851 7.80152 127.145 6.15837C127.564 3.94316 129.167 2.00305 131.264 1.2139C132.238 0.813867 133.263 0.719321 134.299 0.70874C134.383 0.707033 134.464 0.707031 134.55 0.707031H142.75V0.707375Z" fill="url(#paint9_linear)"/>
<path d="M94.519 1.05294C94.5136 2.16328 94.5136 3.27498 94.5207 4.38703H92.4786C91.9654 4.38703 91.4529 4.40819 90.9455 4.49045C89.5045 4.80822 88.4653 6.20426 88.3557 7.6549C88.3158 8.41571 88.3225 9.17892 88.3259 9.93803H88.3208V11.7327H94.519V15.4119H88.3256C88.3327 20.0997 88.3276 24.7844 88.3276 29.4705H84.5559C84.5613 24.895 84.5559 20.3188 84.5613 15.7396V11.146C84.6113 9.48714 84.4172 7.80132 84.7105 6.15852C85.1292 3.9433 86.7337 2.0032 88.8299 1.21439C89.8833 0.782953 90.9976 0.70752 92.1186 0.70752H94.5194V0.721514H94.521C94.5207 0.832104 94.519 0.94235 94.519 1.05294Z" fill="url(#paint10_linear)"/>
<path d="M108.856 29.1236V29.469H106.455C105.334 29.469 104.22 29.3936 103.166 28.9622C101.071 28.173 99.4661 26.2332 99.047 24.0184C98.7534 22.3756 98.9479 20.6894 98.8982 19.0305V14.437C98.8924 9.85772 98.8982 5.28189 98.8924 0.706055H102.664C102.664 4.03673 102.666 7.36706 102.666 10.6974V11.7323H108.856V15.4118H102.666V18.4442H102.657V20.2385H102.662C102.659 20.998 102.652 21.7608 102.692 22.522C102.801 23.9723 103.841 25.3683 105.282 25.6861C105.789 25.7684 106.302 25.7895 106.815 25.7895H108.857C108.85 26.9012 108.85 28.0133 108.856 29.1236Z" fill="url(#paint11_linear)"/>
<path d="M169.138 29.4716H164.208L163.92 28.9258L162.845 26.8761C162.472 26.1477 162.086 25.4197 161.7 24.6954C160.618 22.6733 159.522 20.6633 158.695 18.5447C158.502 18.0518 158.324 17.5538 158.163 17.0466L157.982 16.4663L157.801 17.0466C157.639 17.5534 157.463 18.0514 157.27 18.5447C156.442 20.6633 155.347 22.6733 154.264 24.6954C153.878 25.4197 153.493 26.1477 153.119 26.8761L152.044 28.9258L151.756 29.4716H146.827L151.487 21.3036C151.897 20.5861 152.307 19.869 152.719 19.1515V19.1498C152.838 18.9413 152.957 18.7303 153.075 18.5167L153.131 18.4187L154.101 16.7226L154.244 16.4718C154.494 15.9861 154.635 15.4355 154.635 14.8515C154.635 14.2446 154.482 13.6725 154.214 13.1728L152.888 10.8402L150.02 5.79608L149.005 4.01947L147.428 1.25028L147.117 0.706543H151.98L152.276 1.25028L153.826 4.07749L154.379 5.08236C155.109 6.43811 155.827 7.80957 156.583 9.16532C156.891 9.7268 157.169 10.3036 157.428 10.8894C157.558 11.1791 157.682 11.472 157.803 11.7662L157.982 12.2065L158.161 11.7662C158.283 11.472 158.406 11.1788 158.537 10.8894C158.796 10.3036 159.073 9.7268 159.381 9.16532C160.137 7.80957 160.855 6.43811 161.585 5.08236L162.138 4.07749L163.688 1.25028L163.984 0.706543H168.847L168.536 1.25028L166.96 4.01947L165.945 5.79608L163.077 10.8402L161.75 13.1728C161.483 13.6725 161.33 14.2446 161.33 14.8515C161.33 15.4355 161.47 15.9861 161.721 16.4718L161.863 16.7226L162.833 18.4187L162.889 18.5167C163.007 18.7307 163.127 18.9413 163.245 19.1498V19.1515C163.657 19.869 164.067 20.5861 164.478 21.3036L169.138 29.4716Z" fill="url(#paint12_linear)"/>
<path d="M66.7485 5.17894C69.6011 4.68948 72.7082 4.85127 75.2841 6.29372C77.3459 7.44024 78.7118 9.57353 79.2937 11.8369C79.8968 14.0535 79.8545 16.3697 79.8166 18.6457C79.7368 21.4258 79.0576 24.3612 77.1477 26.4627C75.2462 28.5663 72.354 29.4832 69.5903 29.4661C66.8368 29.5408 63.8623 28.8916 61.8621 26.8563C59.8802 24.8824 59.1489 22.0023 58.997 19.273C58.8914 16.0209 58.8302 12.5574 60.4367 9.61824C61.6825 7.2211 64.1343 5.62984 66.7485 5.17894ZM67.8195 8.16112C66.4386 8.39732 65.1359 9.15507 64.3498 10.3419C63.1987 12.0857 62.9416 14.247 62.9219 16.2956C62.9094 18.2948 62.8651 20.3475 63.5065 22.2689C63.9506 23.685 64.8552 25.0189 66.211 25.678C67.8956 26.4757 69.8772 26.5375 71.6541 26.0354C73.1486 25.6101 74.3715 24.4489 74.9763 23.017C75.9712 20.7069 75.8345 18.1245 75.8112 15.6614C75.729 13.5066 75.3518 11.1327 73.7494 9.56295C72.2041 8.03995 69.8518 7.8273 67.8195 8.16112Z" fill="url(#paint13_linear)"/>
<path d="M54.7461 24.8185C54.1714 26.5169 52.772 27.8235 51.1652 28.5243C49.0067 29.4936 46.5626 29.6353 44.2431 29.3206C42.1593 29.0192 40.0516 28.1253 38.7029 26.4316C38.0645 25.6483 37.6583 24.7099 37.4056 23.7334L37.3058 23.3156L37.1553 22.6791H40.8485C41.2927 24.4522 42.9428 25.6223 44.6598 25.9421C46.5396 26.2923 48.6647 26.177 50.2711 25.0223C51.2393 24.3522 51.7883 23.0555 51.3874 21.9094C50.9839 20.7311 49.8344 20.0556 48.7442 19.6358C46.5501 18.8111 44.305 18.1206 42.1181 17.2728C40.4122 16.5843 38.7702 15.3422 38.2232 13.4943C37.6383 11.4555 37.9959 9.06897 39.4339 7.46848C40.7518 5.98951 42.7107 5.27784 44.624 5.02867C47.1272 4.75015 49.8371 4.99454 51.9801 6.44075C53.2594 7.29133 54.1717 8.62592 54.58 10.108L54.6829 10.5257L54.8439 11.1753H51.1452C50.7156 9.83252 49.5256 8.89387 48.1999 8.55117C46.4277 8.08458 44.3872 8.12588 42.8105 9.15942C41.863 9.77039 41.337 11.0098 41.7071 12.1078C42.0163 13.0871 42.9485 13.6694 43.8449 14.0278C45.7941 14.7497 47.7574 15.4221 49.7092 16.1389C51.2954 16.7239 52.8663 17.5615 53.9265 18.9248C55.2113 20.5638 55.397 22.8804 54.7461 24.8185Z" fill="url(#paint14_linear)"/>
<defs>
<linearGradient id="paint0_linear" x1="112.3" y1="11.7444" x2="112.568" y2="16.1126" gradientUnits="userSpaceOnUse">
<stop stop-color="white"/>
<stop offset="1" stop-color="#D9D9D9"/>
</linearGradient>
<linearGradient id="paint1_linear" x1="10.6338" y1="15.1094" x2="15.7074" y2="25.0498" gradientUnits="userSpaceOnUse">
<stop stop-color="white"/>
<stop offset="1" stop-color="#D9D9D9"/>
</linearGradient>
<linearGradient id="paint2_linear" x1="5.17314" y1="0.0968983" x2="11.4487" y2="10.8329" gradientUnits="userSpaceOnUse">
<stop stop-color="white"/>
<stop offset="1" stop-color="#D9D9D9"/>
</linearGradient>
<linearGradient id="paint3_linear" x1="5.17314" y1="20.5307" x2="9.53342" y2="29.9346" gradientUnits="userSpaceOnUse">
<stop stop-color="white"/>
<stop offset="1" stop-color="#D9D9D9"/>
</linearGradient>
<linearGradient id="paint4_linear" x1="-0.324689" y1="23.3773" x2="2.04234" y2="30.6269" gradientUnits="userSpaceOnUse">
<stop stop-color="white"/>
<stop offset="1" stop-color="#D9D9D9"/>
</linearGradient>
<linearGradient id="paint5_linear" x1="10.6338" y1="4.57912" x2="12.5632" y2="11.1854" gradientUnits="userSpaceOnUse">
<stop stop-color="white"/>
<stop offset="1" stop-color="#D9D9D9"/>
</linearGradient>
<linearGradient id="paint6_linear" x1="-0.324689" y1="0.0799839" x2="2.04256" y2="7.3298" gradientUnits="userSpaceOnUse">
<stop stop-color="white"/>
<stop offset="1" stop-color="#D9D9D9"/>
</linearGradient>
<linearGradient id="paint7_linear" x1="15.0003" y1="16.5987" x2="17.4916" y2="32.3361" gradientUnits="userSpaceOnUse">
<stop stop-color="white"/>
<stop offset="1" stop-color="#D9D9D9"/>
</linearGradient>
<linearGradient id="paint8_linear" x1="29.7621" y1="-8.0687e-07" x2="16.2257" y2="13.4147" gradientUnits="userSpaceOnUse">
<stop stop-color="#89DD65"/>
<stop offset="1" stop-color="#AEDD65"/>
</linearGradient>
<linearGradient id="paint9_linear" x1="125.394" y1="0.800505" x2="134.459" y2="32.4839" gradientUnits="userSpaceOnUse">
<stop stop-color="white"/>
<stop offset="1" stop-color="#D9D9D9"/>
</linearGradient>
<linearGradient id="paint10_linear" x1="83.5424" y1="0.800992" x2="96.412" y2="29.2566" gradientUnits="userSpaceOnUse">
<stop stop-color="white"/>
<stop offset="1" stop-color="#D9D9D9"/>
</linearGradient>
<linearGradient id="paint11_linear" x1="97.8789" y1="0.799527" x2="110.749" y2="29.255" gradientUnits="userSpaceOnUse">
<stop stop-color="white"/>
<stop offset="1" stop-color="#D9D9D9"/>
</linearGradient>
<linearGradient id="paint12_linear" x1="144.587" y1="0.800022" x2="151.248" y2="33.7314" gradientUnits="userSpaceOnUse">
<stop stop-color="white"/>
<stop offset="1" stop-color="#D9D9D9"/>
</linearGradient>
<linearGradient id="paint13_linear" x1="56.8545" y1="5.00944" x2="62.0689" y2="33.2944" gradientUnits="userSpaceOnUse">
<stop stop-color="white"/>
<stop offset="1" stop-color="#D9D9D9"/>
</linearGradient>
<linearGradient id="paint14_linear" x1="35.3528" y1="5.00749" x2="41.3484" y2="32.9691" gradientUnits="userSpaceOnUse">
<stop stop-color="white"/>
<stop offset="1" stop-color="#D9D9D9"/>
</linearGradient>
</defs>
</svg>
