<svg width="60" height="60" viewBox="0 0 60 60" fill="none" xmlns="http://www.w3.org/2000/svg">
<g clip-path="url(#clip0)">
<path d="M31.6032 57.3605C31.5984 57.3605 31.5942 57.3602 31.5894 57.3602H28.3999C28.3912 57.3605 28.3819 57.3605 28.3726 57.3602H0.59964C0.41192 57.3602 0.234995 57.2724 0.121644 57.1227C0.00799192 56.9731 -0.0285925 56.7791 0.0220859 56.5983L4.25209 41.5579C4.87882 39.3301 6.65227 37.5594 8.88122 36.9365L19.7756 33.891L22.2633 30.1468C22.3635 29.996 22.5263 29.8985 22.7065 29.8814C22.7359 29.8787 22.7641 29.8787 22.7926 29.8793L22.7827 29.3707C21.9644 27.9047 21.546 26.5267 21.3736 25.8562L20.8425 25.6145C19.0994 24.8217 18.1953 22.1393 18.3284 20.0036C18.4184 18.5669 19.0652 17.8901 19.676 17.6199C19.3213 15.845 18.5719 10.5687 21.2423 6.89739C24.378 2.58612 29.5652 2.6305 30 2.6413C30.4349 2.6287 35.622 2.58552 38.7575 6.89739C41.4276 10.5687 40.6782 15.845 40.3237 17.6199C40.9346 17.8901 41.5817 18.5669 41.6714 20.0036C41.8045 22.139 40.901 24.8217 39.1575 25.6145L38.6631 25.8397C38.5341 26.5828 38.1701 28.2429 37.2947 29.8814C37.4744 29.8991 37.6369 29.9963 37.7367 30.1468L40.2248 33.8913L51.1186 36.9365C53.3475 37.5594 55.121 39.3301 55.7477 41.5579L59.9777 56.5983C60.0284 56.7791 59.9918 56.9731 59.8781 57.1227C59.7648 57.2724 59.5879 57.3602 59.4001 57.3602H31.6167C31.6122 57.3602 31.6077 57.3605 31.6032 57.3605ZM51.1138 56.1608H58.6085L54.5926 41.8823C54.5923 41.8823 54.5923 41.8823 54.5923 41.8823C54.0786 40.0552 52.6239 38.6023 50.7956 38.0913L40.2317 35.1385L33.9754 52.099C33.9754 52.0996 33.9751 52.1005 33.9748 52.1014L32.4659 56.1608H49.9146V46.1153C49.9146 45.7843 50.1833 45.5156 50.5143 45.5156C50.8454 45.5156 51.1141 45.7843 51.1141 46.1153V56.1608H51.1138ZM28.8047 56.1608H31.186L32.7978 51.8246L31.3863 41.5285C31.3741 41.4382 31.3822 41.3468 31.4106 41.2598L32.4716 38.0269L31.6143 36.4555H28.3855L27.5285 38.0272L28.5891 41.2598C28.6176 41.3461 28.6257 41.4379 28.6134 41.5279L27.2115 51.8255L28.8047 56.1608ZM10.0855 56.1608H27.5267L26.0345 52.1005V52.1002L19.7678 35.1385L9.20388 38.0913C7.37556 38.6023 5.92088 40.0552 5.4072 41.8823L1.3913 56.1608H8.88602V46.1153C8.88602 45.7843 9.1547 45.5156 9.48576 45.5156C9.81682 45.5156 10.0855 45.7843 10.0855 46.1153V56.1608ZM32.5936 41.5027L33.681 49.4322L37.6534 38.6635L35.6949 41.5093C35.5816 41.6742 35.3867 41.7645 35.1926 41.769C34.9923 41.766 34.8067 41.6634 34.6978 41.4958L33.3022 39.3439L32.5936 41.5027ZM22.3515 38.6704L26.3272 49.4307L27.4064 41.503L26.6984 39.3445L25.3025 41.4961C25.1937 41.664 25.0081 41.7666 24.8077 41.7693C24.617 41.763 24.4188 41.6745 24.3055 41.5096L22.3515 38.6704ZM20.8734 34.4062L24.7847 40.09L26.3224 37.7204C26.3296 37.7027 26.3383 37.6856 26.3473 37.6685L27.2802 35.9583L22.989 31.5772C22.9665 31.5544 22.9461 31.5298 22.9281 31.504L22.8526 31.4273L20.8734 34.4062ZM33.6774 37.7189L35.2154 40.09L39.127 34.4062L37.1475 31.427L32.716 35.9517L33.6528 37.6688C33.6618 37.6853 33.6699 37.7021 33.6774 37.7189ZM28.2503 35.2243H31.7393L33.4087 33.5195C32.4356 34.0254 31.291 34.3828 30 34.3828C28.5361 34.3828 27.2601 33.8514 26.2079 33.1389L28.2503 35.2243ZM23.9012 28.9122C23.9255 28.9551 26.3605 33.1833 30 33.1833C33.5682 33.1833 35.9372 29.8032 36.0976 29.5678C37.1658 27.7022 37.475 25.7255 37.5265 25.347C37.5541 25.1428 37.6843 24.9674 37.8717 24.8819L38.661 24.5227C39.7438 24.03 40.5915 21.9534 40.4743 20.0786C40.3882 18.6983 39.6958 18.6677 39.6412 18.6677C39.3615 18.6818 39.1099 18.5064 39.0319 18.2311L37.2441 11.875C36.1756 12.194 33.7646 12.7548 30 12.7548C26.2348 12.7548 23.8239 12.1943 22.7557 11.875L20.9682 18.2311C20.9253 18.3828 20.8275 18.5046 20.7028 18.5807H20.7025C20.7022 18.581 20.7019 18.5816 20.7004 18.5819C20.7001 18.5822 20.6998 18.5825 20.6995 18.5825C20.6986 18.5831 20.6974 18.5837 20.6965 18.5846C20.6962 18.5846 20.6962 18.5846 20.6962 18.5846C20.6914 18.5873 20.6869 18.5903 20.6821 18.5927C20.6815 18.5933 20.6806 18.5936 20.6803 18.5936C20.6794 18.5942 20.6785 18.5945 20.6779 18.5951C20.6773 18.5954 20.677 18.596 20.6758 18.5963C20.5807 18.6479 20.4707 18.6743 20.36 18.6677C20.2425 18.6704 19.6086 18.7508 19.5255 20.0786C19.4082 21.9534 20.256 24.0303 21.3391 24.5227L22.1359 24.8852C22.3065 24.9632 22.4313 25.1164 22.4723 25.2997C22.5413 25.607 22.9353 27.2272 23.8994 28.9086C23.9 28.9098 23.9006 28.911 23.9012 28.9122ZM29.9146 3.83989C29.3286 3.83989 24.8593 3.96374 22.212 7.60329C20.54 9.90241 20.3951 13.0256 20.5658 15.2314L21.7715 10.943C21.818 10.7783 21.9326 10.6413 22.0864 10.5663C22.2396 10.4911 22.4181 10.4857 22.577 10.5504C22.6004 10.56 25.1121 11.5553 30 11.5553C34.8877 11.5553 37.3994 10.5603 37.424 10.5501C37.582 10.4857 37.761 10.492 37.914 10.5672C38.0672 10.6422 38.1821 10.7789 38.2282 10.943L39.4325 15.2252C39.6014 13.0184 39.4556 9.89612 37.788 7.60329C34.9551 3.70765 30.0693 3.83779 30.0225 3.84079C30.0078 3.84139 29.9931 3.84139 29.9787 3.84079C29.9751 3.84049 29.9533 3.83989 29.9146 3.83989ZM46.422 54.9262H38.4004C38.0693 54.9262 37.8006 54.6575 37.8006 54.3264V49.8637C37.8006 49.5327 38.0693 49.264 38.4004 49.264H39.8727C40.0338 48.4369 40.6998 47.2377 42.4112 47.2377C44.1225 47.2377 44.7885 48.4369 44.9496 49.264H46.422C46.753 49.264 47.0217 49.5327 47.0217 49.8637V54.3264C47.0217 54.6578 46.753 54.9262 46.422 54.9262ZM39.0001 53.7267H45.8222V50.4635H39.0001V53.7267ZM41.1139 49.264H43.7084C43.5786 48.9059 43.2487 48.4372 42.4112 48.4372C41.5736 48.4372 41.2435 48.9059 41.1139 49.264Z" fill="#89DD65"/>
</g>
<defs>
<clipPath id="clip0">
<rect width="60" height="60" fill="white"/>
</clipPath>
</defs>
</svg>
