<svg width="60" height="60" viewBox="0 0 60 60" fill="none" xmlns="http://www.w3.org/2000/svg">
<g clip-path="url(#clip0)">
<path d="M38.3548 19.5289C38.1645 19.3386 37.8716 19.2946 37.6812 19.485L28.5722 27.4226C28.1914 27.1736 27.7521 27.0272 27.2687 27.0272C25.9799 27.0272 24.9109 28.0817 24.9109 29.385C24.9109 30.6738 25.9652 31.7428 27.2687 31.7428C28.5575 31.7428 29.6265 30.6883 29.6265 29.385C29.6265 28.9164 29.4801 28.4769 29.2458 28.1108L38.3109 20.2172C38.5014 19.9975 38.5454 19.7193 38.3548 19.5289ZM27.2687 30.7615C26.5072 30.7615 25.8774 30.1318 25.8774 29.3702C25.8774 28.6087 26.5071 27.9789 27.2687 27.9789C27.9862 27.9789 28.66 28.6085 28.66 29.3702C28.66 30.1318 28.0303 30.7615 27.2687 30.7615Z" fill="#89DD65"/>
<path d="M23.6222 28.7556L15.597 27.5986C15.5237 26.3685 14.4987 25.3726 13.2538 25.3726C11.965 25.3726 10.896 26.4271 10.896 27.7304C10.896 29.0192 11.9505 30.0882 13.2538 30.0882C14.279 30.0882 15.143 29.4292 15.4652 28.5213L23.5199 29.6635C23.7542 29.6635 23.9445 29.5171 24.0031 29.2828C24.0469 29.0485 23.8565 28.7995 23.6222 28.7556ZM13.2536 29.1654C12.4922 29.1654 11.8623 28.5358 11.8623 27.7741C11.8623 27.0127 12.492 26.3828 13.2536 26.3828C14.0151 26.3828 14.645 27.0125 14.645 27.7741C14.645 28.5504 14.0153 29.1654 13.2536 29.1654Z" fill="#89DD65"/>
<path d="M55.7385 4.69385H4.2763C1.91849 4.69385 0 6.61234 0 8.96998V44.0152C0 46.373 1.91849 48.2915 4.2763 48.2915H21.074V52.4653H17.8083C17.5154 52.4653 17.325 52.6557 17.325 52.9486V54.8231C17.325 55.116 17.5154 55.3064 17.8083 55.3064H42.1921C42.4264 55.3064 42.6753 55.116 42.6753 54.8231V52.9486C42.6753 52.6557 42.4849 52.4653 42.1921 52.4653H38.9264V48.2915H55.724C58.0818 48.2915 60.0003 46.373 60.0003 44.0152V8.96998C60.0002 6.61217 58.0817 4.69385 55.7385 4.69385ZM41.7233 53.4173V54.3254H18.2915V53.4173H21.5572H34.225C34.5179 53.4173 34.7083 53.227 34.7083 52.9341C34.7083 52.6412 34.5179 52.4509 34.225 52.4509H22.0258V48.2771H37.9595V52.9341C37.9742 53.2123 38.1645 53.4173 38.4576 53.4173H41.7233ZM59.0482 44.0006C59.0482 45.8312 57.5543 47.3104 55.7383 47.3104H4.2763C2.44567 47.3104 0.966654 45.8166 0.966654 44.0006V42.6532H59.0482V44.0006ZM59.0482 41.6869H0.966654V8.95533C0.966654 7.13934 2.44584 5.64569 4.2763 5.64569H55.7385C57.5691 5.64569 59.0483 7.13952 59.0483 8.9555V41.6869H59.0482Z" fill="#89DD65"/>
<path d="M56.6903 7.46191H54.3325C54.0397 7.46191 53.8493 7.65228 53.8493 7.94516C53.8493 8.23803 54.0397 8.4284 54.3325 8.4284H55.7092L43.0414 15.8093C42.6167 15.282 41.9578 14.9598 41.2254 14.9598C39.9366 14.9598 38.8676 16.0143 38.8676 17.3176C38.8676 18.6064 39.9221 19.6754 41.2254 19.6754C42.5142 19.6754 43.5832 18.6209 43.5832 17.3176C43.5832 17.098 43.5539 16.893 43.4954 16.7026L56.2071 9.29238V38.8752H4.07128L11.174 30.8644C11.3204 30.674 11.3204 30.3812 11.1301 30.1908C10.9397 30.0004 10.6468 30.0444 10.4564 30.2347L3.73448 37.8209V8.44321H48.7089C49.0017 8.44321 49.1921 8.25284 49.1921 7.95997C49.1921 7.6671 49.0017 7.47673 48.7089 7.47673H3.25106C2.95819 7.47673 2.76782 7.6671 2.76782 7.95997V39.3584C2.78247 39.6367 2.97283 39.8272 3.26571 39.8272H56.6903C56.9832 39.8272 57.1736 39.6368 57.1736 39.344V7.94516C57.1736 7.65228 56.9832 7.46191 56.6903 7.46191ZM41.2401 18.7091C40.4786 18.7091 39.8487 18.0794 39.8487 17.3178C39.8487 16.5563 40.4784 15.9265 41.2401 15.9265C42.0017 15.9265 42.6314 16.5562 42.6314 17.3178C42.6314 18.0794 42.0015 18.7091 41.2401 18.7091Z" fill="#89DD65"/>
<path d="M30.0073 43.5176C29.1872 43.5176 28.572 44.1473 28.572 44.9528C28.572 45.7584 29.2456 46.3881 30.0073 46.3881C30.7689 46.3881 31.4425 45.7584 31.4425 44.9528C31.4425 44.1473 30.7689 43.5176 30.0073 43.5176ZM30.0073 45.4946C29.7144 45.4946 29.524 45.3043 29.524 45.0114C29.524 44.7185 29.7583 44.5282 30.0073 44.5282C30.2416 44.5282 30.4905 44.7185 30.4905 45.0114C30.476 45.3043 30.2855 45.4946 30.0073 45.4946Z" fill="#89DD65"/>
</g>
<defs>
<clipPath id="clip0">
<rect width="60" height="60" fill="white"/>
</clipPath>
</defs>
</svg>
