<svg width="24" height="24" viewBox="0 0 24 24" fill="none" xmlns="http://www.w3.org/2000/svg">
<path d="M12.0003 7.00586C9.24218 7.00586 7.00635 9.24169 7.00635 11.9998C7.00635 14.7579 9.24218 16.9937 12.0003 16.9937C14.7584 16.9937 16.9942 14.7579 16.9942 11.9998C16.9911 9.24303 14.757 7.009 12.0003 7.00586Z" fill="#E0E0E0"/>
<path d="M12.3832 5.33621V3.38299C12.3832 3.17145 12.2117 3 12.0002 3C11.7886 3 11.6172 3.17145 11.6172 3.38299V5.33621C11.6172 5.54775 11.7886 5.7192 12.0002 5.7192C12.2117 5.7192 12.3832 5.54775 12.3832 5.33621Z" fill="#E0E0E0"/>
<path d="M12.0002 18.2808C11.7886 18.2808 11.6172 18.4522 11.6172 18.6637V20.617C11.6172 20.8285 11.7886 21 12.0002 21C12.2117 21 12.3832 20.8285 12.3832 20.617V18.6637C12.3832 18.4522 12.2117 18.2808 12.0002 18.2808Z" fill="#E0E0E0"/>
<path d="M20.6172 11.6172H18.664C18.4525 11.6172 18.281 11.7886 18.281 12.0002C18.281 12.2117 18.4525 12.3832 18.664 12.3832H20.6172C20.8288 12.3832 21.0002 12.2117 21.0002 12.0002C21.0002 11.7886 20.8288 11.6172 20.6172 11.6172Z" fill="#E0E0E0"/>
<path d="M5.7192 12.0002C5.7192 11.7886 5.54775 11.6172 5.33621 11.6172H3.38299C3.17145 11.6172 3 11.7886 3 12.0002C3 12.2117 3.17145 12.3832 3.38299 12.3832H5.33621C5.54775 12.3832 5.7192 12.2117 5.7192 12.0002Z" fill="#E0E0E0"/>
<path d="M16.9887 7.55315L18.3473 6.1946C18.4958 6.04485 18.4952 5.80324 18.3461 5.65423C18.1971 5.50508 17.9555 5.50448 17.8057 5.65304L16.4472 7.01158C16.3498 7.10808 16.3113 7.24945 16.3466 7.38215C16.3821 7.5147 16.4856 7.61823 16.6182 7.65368C16.7509 7.68899 16.8922 7.65054 16.9887 7.55315Z" fill="#E0E0E0"/>
<path d="M7.01154 16.4469L5.65299 17.8055C5.55545 17.9021 5.51715 18.0435 5.55246 18.176C5.58776 18.3086 5.69144 18.4123 5.82399 18.4476C5.95654 18.4829 6.09791 18.4446 6.19456 18.347L7.55311 16.9885C7.6505 16.892 7.68895 16.7506 7.65364 16.6179C7.61818 16.4854 7.51466 16.3818 7.38211 16.3464C7.24941 16.3111 7.10804 16.3495 7.01154 16.4469Z" fill="#E0E0E0"/>
<path d="M16.9887 16.4469C16.8922 16.3495 16.7509 16.3111 16.6182 16.3464C16.4856 16.3818 16.3821 16.4854 16.3466 16.6179C16.3113 16.7506 16.3498 16.892 16.4472 16.9885L17.8057 18.347C17.9555 18.4956 18.1971 18.495 18.3461 18.3458C18.4952 18.1968 18.4958 17.9552 18.3473 17.8055L16.9887 16.4469Z" fill="#E0E0E0"/>
<path d="M7.01159 7.55315C7.10808 7.65054 7.24946 7.68899 7.38216 7.65368C7.51471 7.61823 7.61823 7.5147 7.65369 7.38215C7.689 7.24945 7.65055 7.10808 7.55316 7.01158L6.1946 5.65304C6.04485 5.50448 5.80324 5.50508 5.65423 5.65423C5.50508 5.80324 5.50448 6.04485 5.65304 6.1946L7.01159 7.55315Z" fill="#E0E0E0"/>
</svg>
